<svg width="22" height="22" viewBox="0 0 22 22" fill="none" xmlns="http://www.w3.org/2000/svg">
  <g clip-path="url(#clip0_450_2808)">
    <path d="M9.03535 3.88677C9.663 3.73908 10.3056 3.66525 10.9502 3.66677C17.3331 3.66677 20.9805 11.0001 20.9805 11.0001C20.427 12.0411 19.7669 13.0211 19.0109 13.9243M12.8833 12.9434C12.6329 13.2136 12.3309 13.4303 11.9953 13.5806C11.6598 13.7309 11.2975 13.8118 10.9302 13.8183C10.5629 13.8248 10.1981 13.7569 9.85748 13.6186C9.51686 13.4802 9.20743 13.2744 8.94767 13.0132C8.68791 12.7521 8.48313 12.4411 8.34555 12.0986C8.20796 11.7562 8.1404 11.3894 8.14688 11.0202C8.15336 10.6509 8.23375 10.2868 8.38327 9.94947C8.53278 9.61213 8.74835 9.30853 9.01711 9.05677M16.3666 16.4451C14.8079 17.6395 12.9099 18.3012 10.9502 18.3334C4.5673 18.3334 0.919922 11.0001 0.919922 11.0001C2.05416 8.87518 3.62732 7.01866 5.53386 5.5551L16.3666 16.4451Z" stroke="#868689" stroke-width="1.5" stroke-linecap="round" stroke-linejoin="round"/>
    <path d="M0 0L20.0606 20" stroke="#868689" stroke-width="1.5" stroke-linecap="round" stroke-linejoin="round"/>
  </g>
  <defs>
    <clipPath id="clip0_450_2808">
    <rect width="22.0667" height="22" fill="white"/>
    </clipPath>
  </defs>
</svg>
